<svg id="Layer_1" data-name="Layer 1" xmlns="http://www.w3.org/2000/svg" viewBox="0 0 150 30"><defs><style>.cls-1{fill:#ced5db;}.cls-2{fill:none;stroke:#fff;stroke-linecap:round;stroke-linejoin:round;}.cls-3{fill:#fff;}</style></defs><rect class="cls-1" x="0.5" y="0.5" width="149" height="29" rx="2"/><line class="cls-2" x1="140.5" y1="17.5" x2="132.5" y2="17.5"/><line class="cls-2" x1="140.5" y1="14.5" x2="132.5" y2="14.5"/><line class="cls-2" x1="140.5" y1="11.5" x2="132.5" y2="11.5"/><rect class="cls-2" x="9.5" y="11.5" width="6" height="6" rx="1"/><rect class="cls-2" x="19.5" y="11.5" width="6" height="6" rx="1"/><path class="cls-3" d="M99.66,16.67h2.2v1.26H98V11.11h1.65Z"/><path class="cls-3" d="M107.62,11.44a3.35,3.35,0,0,1,1.23,1.25,3.47,3.47,0,0,1,.47,1.81,3.66,3.66,0,0,1-.47,1.8,3.31,3.31,0,0,1-1.24,1.25,3.42,3.42,0,0,1-1.74.45,3.46,3.46,0,0,1-1.75-.45,3.31,3.31,0,0,1-1.24-1.25,3.55,3.55,0,0,1-.46-1.8,3.46,3.46,0,0,1,.46-1.81,3.31,3.31,0,0,1,1.24-1.25A3.68,3.68,0,0,1,107.62,11.44Zm-3.05,1.62a2.07,2.07,0,0,0-.47,1.44,2.05,2.05,0,0,0,.47,1.42,1.73,1.73,0,0,0,1.3.54,1.65,1.65,0,0,0,1.27-.54,2,2,0,0,0,.49-1.42,2,2,0,0,0-.48-1.43,1.61,1.61,0,0,0-1.28-.53A1.64,1.64,0,0,0,104.57,13.06Z"/><path class="cls-3" d="M115.55,11.67a2.7,2.7,0,0,1,1,1.7h-1.75a1.38,1.38,0,0,0-.53-.59,1.62,1.62,0,0,0-.86-.22,1.59,1.59,0,0,0-1.26.53,2,2,0,0,0-.47,1.42,2.1,2.1,0,0,0,.49,1.5,1.84,1.84,0,0,0,1.42.52,1.65,1.65,0,0,0,1-.33,1.7,1.7,0,0,0,.63-.91h-2.08V14.1h3.46v1.6a3.59,3.59,0,0,1-.65,1.14,3.44,3.44,0,0,1-1.1.83,3.38,3.38,0,0,1-1.5.32,3.57,3.57,0,0,1-1.81-.44,3,3,0,0,1-1.19-1.23,4.09,4.09,0,0,1,0-3.61,3.06,3.06,0,0,1,1.18-1.24,3.52,3.52,0,0,1,1.8-.43A3.36,3.36,0,0,1,115.55,11.67Z"/><path class="cls-3" d="M122.59,11.44a3.31,3.31,0,0,1,1.24,1.25,3.55,3.55,0,0,1,.45,1.81,3.54,3.54,0,0,1-.45,1.8,3.41,3.41,0,0,1-1.25,1.25,3.59,3.59,0,0,1-3.48,0,3.41,3.41,0,0,1-1.25-1.25,3.77,3.77,0,0,1,0-3.61,3.41,3.41,0,0,1,1.25-1.25A3.66,3.66,0,0,1,122.59,11.44Zm-3,1.62a2.07,2.07,0,0,0-.47,1.44,2.05,2.05,0,0,0,.47,1.42,1.71,1.71,0,0,0,1.29.54,1.67,1.67,0,0,0,1.28-.54,2,2,0,0,0,.48-1.42,2.06,2.06,0,0,0-.47-1.43,1.85,1.85,0,0,0-2.58,0Z"/></svg>